<svg xmlns="http://www.w3.org/2000/svg" xmlns:svg="http://www.w3.org/2000/svg" xmlns:xlink="http://www.w3.org/1999/xlink" id="svg962" width="80" height="80" version="1.1" viewBox="0 0 21.167 21.167"><defs id="defs956"><linearGradient id="linearGradient1679" x1="-643.785" x2="-628.511" y1="803.315" y2="819.47" gradientTransform="matrix(0.27471748,0,0,0.27511695,185.85597,-210.27846)" gradientUnits="userSpaceOnUse" xlink:href="#linearGradient1693"/><linearGradient id="linearGradient1693"><stop style="stop-color:#d93a2c;stop-opacity:1" id="stop1685" offset="0"/><stop id="stop1687" offset=".383" style="stop-color:#d93a2c;stop-opacity:1"/><stop id="stop1689" offset=".447" style="stop-color:#232323;stop-opacity:1"/><stop style="stop-color:#d93a2c;stop-opacity:1" id="stop1691" offset="1"/></linearGradient></defs><metadata id="metadata959"/><path id="red" d="m 6.4778,4.2988 c 0,0 -3.77683,0 -3.77683,0 0,3.33387 1.61578,5.64304 3.65825,7.51201 0,0 5.51957,4.37823 5.51957,4.37823 1.6049,1.40419 2.79215,2.93569 2.79215,4.96908 0,0 3.67434,0 3.67434,0 -0.008,-3.20401 -1.57831,-5.37857 -3.58732,-7.18197 0,0 0,5.5e-4 0,5.5e-4 0,0 -5.52869,-4.39865 -5.52869,-4.39865 C 7.63618,8.1312 6.4778,6.51312 6.4778,4.29924 c 0,0 0,-4.4e-4 0,-4.4e-4" style="fill:url(#linearGradient1679)"/><path id="green" d="m 2.70097,21.15812 c 0,-3.08157 1.14591,-5.16727 3.40289,-6.95547 0,0 5.63787,-4.46687 5.63787,-4.46687 1.75814,-1.39297 2.92823,-3.13468 2.92921,-5.4316 0,0 -2.23475,-0.005 -2.23475,-0.005 0,0 4.08415,-4.29881 4.08415,-4.29881 0,0 4.1115,4.29881 4.1115,4.29881 0,0 -2.2807,0 -2.2807,0 -0.003,3.53436 -1.71589,5.98194 -3.98306,7.82121 0,0 -5.92996,4.81075 -5.92996,4.81075 -1.3168,1.06829 -1.96008,2.54337 -1.96008,4.22755 0,0.0226 -3.76827,-0.008 -3.77707,-1.8e-4 0,0 0,-3.9e-4 0,-3.9e-4" style="fill:#4fb850"/></svg>