<svg xmlns="http://www.w3.org/2000/svg" xmlns:svg="http://www.w3.org/2000/svg" id="svg8" width="300" height="300" version="1.1" viewBox="0 0 300 300"><metadata id="metadata5"/><g id="layer1" transform="translate(0,-144.08332)"><path style="fill:#676767;stroke-width:.99999988" id="path1927" d="m -300.16525,625.75348 c -25.57567,-3.29385 -51.89574,-27.47642 -55.57397,-55.84806 -3.52415,-23.71384 1.56179,-51.39948 21.16764,-67.05139 8.60037,-5.86117 20.29674,-12.4278 30.61134,-11.6461 0.30976,10.49948 -0.30814,23.26137 0,33.76086 -12.28508,1.36718 -24.17769,15.33244 -23.93117,28.12027 0.30165,16.63959 7.66621,31.9266 23.67493,36.90713 17.70835,5.96009 37.97752,4.26532 54.3706,-5.64221 13.54197,-10.54976 14.79237,-30.19292 7.71001,-45.14423 -3.18358,-8.22573 -10.05027,-14.26528 -19.37232,-14.23933 v 29.28633 h -26.2844 v -63.04719 h 79.59111 V 513.8806 L -230,514.08332 c 20.34215,11.59581 22.42939,36.62657 21.3882,53.9911 0.73143,29.82963 -28.73979,54.15004 -57.96612,57.40335 -10.57895,0.78982 -19.52476,0.83036 -33.58733,0.27571 z"/><path style="fill:#d93a2c;stroke-width:.99999988" id="path1925" d="m 0,304.08332 v -30 h 150 v 30 z"/><path style="fill:#4fb850;stroke-width:.99999988" id="path1917" d="m 60,264.08332 v -45 H 0 v -30 h 60 v -45 h 30 v 45 h 60 v 30 H 90 v 45 z"/><path style="fill:#d93a2c;stroke-width:.99999988" id="path3062" d="m 255.56637,301.74477 c 13.47194,10.63085 24.37837,23.45115 24.43363,42.33855 -10,0 -10,0 -25,0 0,-11.98667 -7.97955,-21.01677 -18.74165,-29.2944 -0.0627,0.0179 19.2417,-13.02462 19.30802,-13.04408 z"/><path style="fill:#d93a2c;stroke-width:.99999988" id="path3064" d="m 200,244.08332 c 0,13.05057 7.8094,23.20484 18.49226,31.73385 -0.10496,-0.034 -19.21773,13.21113 -19.24536,13.16409 C 185.54652,277.96767 175,263.7362 175,244.08332 c 5,0 15,0 25,0 z"/><g id="g3068" transform="matrix(1.8421914,0,0,1.6217929,-44.277885,144.18113)" style="stroke-width:.57854205"><path style="fill:#4fb850;stroke-width:.57854205" id="path3066" d="m 119.031,123.26 c 0,-32 43.42906,-35.821156 43.44006,-61.676156 -0.073,-0.021 -8.156,0.016 -8.156,0.016 l 14.888,-15.661 14.96775,15.661 c 0,0 -5.42832,0 -8.14247,0 C 175.99734,94.766844 132.5,99.703 132.5,123.245 c 0,0.082 -13.437,-0.016 -13.469,0.015 z"/></g><path style="fill:#676767;stroke-width:.99999988" id="path3070" d="m 175,144.08332 h 25 v 40 h 80 v 25 h -80 v 35 h -25 z"/><path style="fill:#676767;stroke-width:.99999988" id="path3072" d="m 200,419.08332 h 15 v -35 h 25 v 35 h 15 v -75 c 0.002,-0.002 25.00185,0 25,0 0,42.30122 -0.1008,100 -0.1008,100 H 175 v -100 c 0,-0.0259 24.96312,0.0325 25,0"/><flowRoot id="flowRoot3071" xml:space="preserve" style="fill:#000;stroke:none;stroke-opacity:1;stroke-width:1px;stroke-linejoin:miter;stroke-linecap:butt;fill-opacity:1;font-family:sans-serif;font-style:normal;font-weight:400;font-size:13.33333333px;line-height:125%;letter-spacing:0;word-spacing:0;-inkscape-font-specification:'sans-serif, Normal';font-stretch:normal;font-variant:normal;text-anchor:start;text-align:start;writing-mode:lr;font-variant-ligatures:normal;font-variant-caps:normal;font-variant-numeric:normal;font-feature-settings:normal"><flowRegion id="flowRegion3073"><rect id="rect3075" width="220" height="260" x="-290" y="0"/></flowRegion><flowPara id="flowPara3077"/></flowRoot><text style="font-style:normal;font-variant:normal;font-weight:400;font-stretch:normal;font-size:13.33333302px;line-height:125%;font-family:sans-serif;-inkscape-font-specification:'sans-serif, Normal';font-variant-ligatures:normal;font-variant-caps:normal;font-variant-numeric:normal;font-feature-settings:normal;text-align:start;letter-spacing:0;word-spacing:0;writing-mode:lr-tb;text-anchor:start;fill:#676767;fill-opacity:1;stroke:none;stroke-width:1px;stroke-linecap:butt;stroke-linejoin:miter;stroke-opacity:1" id="text3081" x="-581.67" y="-385.679" transform="rotate(-90)" xml:space="preserve"><tspan id="tspan3079" x="-581.67" y="-385.679" style="font-style:normal;font-variant:normal;font-weight:700;font-stretch:normal;font-size:192px;font-family:Bahnschrift;-inkscape-font-specification:'Bahnschrift Bold';fill:#676767;fill-opacity:1">G</tspan></text><text id="text3085" x="-298.882" y="-395.014" transform="rotate(-90)" xml:space="preserve" style="font-style:normal;font-variant:normal;font-weight:400;font-stretch:normal;font-size:13.33333302px;line-height:125%;font-family:sans-serif;-inkscape-font-specification:'sans-serif, Normal';font-variant-ligatures:normal;font-variant-caps:normal;font-variant-numeric:normal;font-feature-settings:normal;text-align:start;letter-spacing:0;word-spacing:0;writing-mode:lr-tb;text-anchor:start;fill:#676767;fill-opacity:1;stroke:none;stroke-width:1px;stroke-linecap:butt;stroke-linejoin:miter;stroke-opacity:1"><tspan style="font-style:normal;font-variant:normal;font-weight:700;font-stretch:normal;font-size:192px;font-family:Corbel;-inkscape-font-specification:'Corbel Bold';fill:#676767;fill-opacity:1" id="tspan3083" x="-298.882" y="-395.014">G</tspan></text><text style="font-style:normal;font-variant:normal;font-weight:400;font-stretch:normal;font-size:13.33333302px;line-height:125%;font-family:sans-serif;-inkscape-font-specification:'sans-serif, Normal';font-variant-ligatures:normal;font-variant-caps:normal;font-variant-numeric:normal;font-feature-settings:normal;text-align:start;letter-spacing:0;word-spacing:0;writing-mode:lr-tb;text-anchor:start;fill:#676767;fill-opacity:1;stroke:none;stroke-width:1px;stroke-linecap:butt;stroke-linejoin:miter;stroke-opacity:1" id="text3089" x="-478.848" y="-222.644" transform="rotate(-90)" xml:space="preserve"><tspan id="tspan3087" x="-478.848" y="-222.644" style="font-style:normal;font-variant:normal;font-weight:400;font-stretch:normal;font-size:192px;font-family:Ebrima;-inkscape-font-specification:Ebrima;fill:#676767;fill-opacity:1">G</tspan></text><text id="text3093" x="-448.381" y="-382.929" transform="rotate(-90)" xml:space="preserve" style="font-style:normal;font-variant:normal;font-weight:400;font-stretch:normal;font-size:13.33333302px;line-height:125%;font-family:sans-serif;-inkscape-font-specification:'sans-serif, Normal';font-variant-ligatures:normal;font-variant-caps:normal;font-variant-numeric:normal;font-feature-settings:normal;text-align:start;letter-spacing:0;word-spacing:0;writing-mode:lr-tb;text-anchor:start;fill:#676767;fill-opacity:1;stroke:none;stroke-width:1px;stroke-linecap:butt;stroke-linejoin:miter;stroke-opacity:1"><tspan style="font-style:normal;font-variant:normal;font-weight:400;font-stretch:normal;font-size:192px;font-family:'Josefin Sans';-inkscape-font-specification:'Josefin Sans';fill:#676767;fill-opacity:1" id="tspan3091" x="-448.381" y="-382.929">G</tspan></text><text style="font-style:normal;font-variant:normal;font-weight:400;font-stretch:normal;font-size:13.83461285px;line-height:125%;font-family:sans-serif;-inkscape-font-specification:'sans-serif, Normal';font-variant-ligatures:normal;font-variant-caps:normal;font-variant-numeric:normal;font-feature-settings:normal;text-align:start;letter-spacing:0;word-spacing:0;writing-mode:lr-tb;text-anchor:start;fill:#676767;fill-opacity:1;stroke:none;stroke-width:1px;stroke-linecap:butt;stroke-linejoin:miter;stroke-opacity:1" id="text3109" x="-453.661" y="148.326" transform="rotate(-90)" xml:space="preserve"><tspan id="tspan3107" x="-453.661" y="148.326" style="font-style:normal;font-variant:normal;font-weight:700;font-stretch:normal;font-size:199.21842957px;font-family:'Josefin Sans';-inkscape-font-specification:'Josefin Sans';fill:#676767;fill-opacity:1;stroke-width:1px">G</tspan></text><text style="font-style:normal;font-variant:normal;font-weight:400;font-stretch:normal;font-size:14.40468216px;line-height:125%;font-family:sans-serif;-inkscape-font-specification:'sans-serif, Normal';font-variant-ligatures:normal;font-variant-caps:normal;font-variant-numeric:normal;font-feature-settings:normal;text-align:start;letter-spacing:0;word-spacing:0;writing-mode:lr-tb;text-anchor:start;fill:#bfbfbf;fill-opacity:1;stroke:none;stroke-width:1px;stroke-linecap:butt;stroke-linejoin:miter;stroke-opacity:1" id="text3097" x="-757.643" y="-381.944" transform="rotate(-90)" xml:space="preserve"><tspan id="tspan3095" x="-757.643" y="-381.944" style="font-style:normal;font-variant:normal;font-weight:400;font-stretch:normal;font-size:207.4274292px;font-family:Righteous;-inkscape-font-specification:Righteous;fill:#bfbfbf;fill-opacity:1;stroke-width:1px">G</tspan></text><text id="text3105" x="-336.72" y="-227.594" transform="rotate(-90)" xml:space="preserve" style="font-style:normal;font-variant:normal;font-weight:400;font-stretch:normal;font-size:13.33333302px;line-height:125%;font-family:sans-serif;-inkscape-font-specification:'sans-serif, Normal';font-variant-ligatures:normal;font-variant-caps:normal;font-variant-numeric:normal;font-feature-settings:normal;text-align:start;letter-spacing:0;word-spacing:0;writing-mode:lr-tb;text-anchor:start;fill:#676767;fill-opacity:1;stroke:none;stroke-width:1px;stroke-linecap:butt;stroke-linejoin:miter;stroke-opacity:1"><tspan style="font-style:normal;font-variant:normal;font-weight:700;font-stretch:normal;font-size:192px;font-family:Ebrima;-inkscape-font-specification:'Ebrima Bold';fill:#676767;fill-opacity:1" id="tspan3103" x="-336.72" y="-227.594">G</tspan></text></g></svg>